<svg width="46" height="16" viewBox="0 0 46 16" fill="none" xmlns="http://www.w3.org/2000/svg">
<path d="M17.4709 1.1674L11.7423 15.2704H7.95976L5.05169 4.01574C4.87509 3.32252 4.72324 3.06856 4.19502 2.77651C3.33286 2.30057 1.91037 1.8545 0.65939 1.5775L0.742264 1.16763L6.83103 1.16763C7.60714 1.16763 8.30742 1.69436 8.48808 2.60556L10.0348 10.7661L13.7118 1.1674L17.4709 1.1674ZM32.3382 10.6657C32.3352 6.94356 27.2707 6.73851 27.2974 5.07578C27.3058 4.56974 27.7757 4.03173 28.8095 3.8944C29.3219 3.82597 30.7343 3.77377 32.3403 4.52554L32.9541 1.53493C32.0916 1.21654 30.9823 0.909912 29.604 0.909912C26.0671 0.909912 23.5873 2.82683 23.5798 5.57171C23.5668 7.60197 25.3719 8.73491 26.7309 9.40954C28.129 10.1004 28.5991 10.5444 28.5968 11.1623C28.5915 12.1083 27.4911 12.526 26.4609 12.5424C24.6625 12.5706 23.6162 12.0463 22.7824 11.6519L22.1489 14.7415C22.9869 15.1326 24.5318 15.4738 26.1319 15.4909C29.8911 15.4907 32.341 13.5978 32.3382 10.6657ZM41.7004 15.2704H45.0099L42.0522 1.1674L38.9975 1.1674C38.3107 1.1674 37.7333 1.57514 37.4799 2.20205L32.1739 15.2704H35.9313L36.6671 13.1637L41.2581 13.1637L41.7004 15.2704ZM37.6833 10.2732L39.5409 4.97819L40.6508 10.2732H37.6833ZM22.5838 1.1674L19.6938 15.2704H16.1155L19.0067 1.1674L22.5838 1.1674Z" fill="white"/>
</svg>
